<?xml version="1.0" encoding="UTF-8" standalone="no"?>
<!-- Created with Inkscape (http://www.inkscape.org/) -->

<svg
   width="12cm"
   height="12.5cm"
   viewBox="0 0 120 125"
   version="1.1"
   id="svg1"
   sodipodi:docname="logo-front-pull-simplifié.svg"
   inkscape:version="1.4 (e7c3feb100, 2024-10-09)"
   xmlns:inkscape="http://www.inkscape.org/namespaces/inkscape"
   xmlns:sodipodi="http://sodipodi.sourceforge.net/DTD/sodipodi-0.dtd"
   xmlns="http://www.w3.org/2000/svg"
   xmlns:svg="http://www.w3.org/2000/svg">
  <sodipodi:namedview
     id="namedview1"
     pagecolor="#ffffff"
     bordercolor="#000000"
     borderopacity="0.25"
     inkscape:showpageshadow="2"
     inkscape:pageopacity="0.0"
     inkscape:pagecheckerboard="0"
     inkscape:deskcolor="#d1d1d1"
     inkscape:document-units="cm"
     inkscape:zoom="1.6302365"
     inkscape:cx="218.37323"
     inkscape:cy="251.19055"
     inkscape:window-width="1920"
     inkscape:window-height="1000"
     inkscape:window-x="0"
     inkscape:window-y="0"
     inkscape:window-maximized="1"
     inkscape:current-layer="layer2" />
  <defs
     id="defs1" />
  <g
     id="layer2"
     transform="matrix(2.0279508,0,0,2.0279508,-55.378849,-137.58482)"
     style="display:inline">
    <path
       id="path23"
       style="display:inline;fill:#030303;fill-opacity:1;stroke-width:9.56609;stroke-linecap:square;stroke-linejoin:round"
       d="m 31.514004,122.14036 v 5.30385 h 0.577169 v -4.45657 h 0.0084 l 1.212948,3.33637 h 0.699229 l 1.217534,-3.43141 h 0.0084 v 4.55161 h 0.678079 v -5.30385 h -1.040434 l -1.166825,3.26579 h -0.0084 l -1.187721,-3.26579 z m 9.204132,0 v 5.30385 h 0.576915 v -4.45657 h 0.0084 l 1.213202,3.33637 h 0.699229 l 1.217279,-3.43141 h 0.0084 v 4.55161 h 0.678333 v -5.30385 H 44.07946 l -1.166825,3.26579 h -0.0084 l -1.187975,-3.26579 z m 9.035441,0 1.937658,2.60427 -2.118836,2.69958 h 0.808802 l 1.697617,-2.15783 1.596453,2.15783 h 0.985647 l -2.072458,-2.81526 1.962885,-2.48859 h -0.808801 l -1.545744,1.96365 -1.461653,-1.96365 z m 9.204129,0 1.93766,2.60427 -2.11883,2.69958 h 0.8088 l 1.69736,-2.15783 1.59645,2.15783 h 0.9859 l -2.07245,-2.81526 1.96288,-2.48859 h -0.8088 l -1.546,1.96365 -1.46165,-1.96365 z m 9.70511,0 v 0.61183 h 1.45325 v 4.08019 h -1.45325 v 0.61183 h 3.74052 v -0.61183 h -1.45324 v -4.08019 h 1.45324 v -0.61183 z m 8.53447,0 2.09768,5.30385 h 0.83403 l 2.14406,-5.30385 h -0.70763 l -1.76515,4.21678 -1.72692,-4.21678 z" />
    <path
       id="path9"
       style="display:inline;fill:#030303;fill-opacity:1;stroke-width:9.56609;stroke-linecap:square;stroke-linejoin:round"
       d="m 56.84765,69.392551 c -1.168751,0.0014 -2.077245,0.859756 -2.076281,1.886695 9.64e-4,1.026927 0.911098,1.881308 2.080103,1.880833 1.169028,-4.74e-4 2.078319,-0.855682 2.078319,-1.882617 v -0.0041 c -0.0018,-1.02687 -0.913385,-1.882234 -2.082141,-1.880834 z m 1.938932,3.446454 c -0.472306,0.498663 -1.16568,0.813075 -1.93511,0.813388 -0.766631,3.11e-4 -1.467621,-0.320015 -1.940207,-0.815172 -0.0746,1.347322 -0.149158,2.694646 -0.223731,4.041969 1.431511,0.01897 3.012652,-0.342242 4.217032,-1.302135 -0.04106,-0.912611 -0.08056,-1.825284 -0.117982,-2.73805 z m 0.129449,3.244889 c -1.24407,0.98222 -2.817037,1.339925 -4.241494,1.31717 -0.06229,1.088158 -0.132359,2.175823 -0.198506,3.263746 1.560969,0.01759 3.288067,-0.322477 4.571997,-1.227472 -0.05313,-1.117454 -0.09147,-2.235486 -0.131997,-3.353444 z m 0.166398,3.872514 c -1.365785,0.987938 -3.010422,1.311292 -4.665516,1.328127 l -0.154167,3.493085 5.028381,0.0107 c 9.65e-4,-0.0023 -0.208698,-4.831915 -0.208698,-4.831915 z m -9.545337,5.34385 1.291177,2.277335 h 12.218664 l 1.209126,-2.246247 z m 4.730241,2.757163 V 116.4144 l 2.614208,3.65592 2.620323,-3.65592 V 88.057421 l -2.361935,7.64e-4 0.0018,28.133765 c -0.007,0.23497 -0.49894,0.2343 -0.49894,-7.7e-4 V 88.057421 Z"
       sodipodi:nodetypes="csssccccccccccccccccccccccccccccccsccscc" />
  </g>
</svg>
