<?xml version="1.0" encoding="UTF-8" standalone="no"?>
<!-- Created with Inkscape (http://www.inkscape.org/) -->

<svg
   width="31cm"
   height="12.5cm"
   viewBox="0 0 310 125"
   version="1.1"
   id="svg1"
   inkscape:version="1.4 (e7c3feb100, 2024-10-09)"
   sodipodi:docname="logo.svg"
   inkscape:export-filename="/home/dkeme/Images/killer-logo.png"
   inkscape:export-xdpi="200"
   inkscape:export-ydpi="200"
   xmlns:inkscape="http://www.inkscape.org/namespaces/inkscape"
   xmlns:sodipodi="http://sodipodi.sourceforge.net/DTD/sodipodi-0.dtd"
   xmlns="http://www.w3.org/2000/svg"
   xmlns:svg="http://www.w3.org/2000/svg">
  <sodipodi:namedview
     id="namedview1"
     pagecolor="#ffffff"
     bordercolor="#000000"
     borderopacity="0.25"
     inkscape:showpageshadow="2"
     inkscape:pageopacity="0.0"
     inkscape:pagecheckerboard="0"
     inkscape:deskcolor="#d1d1d1"
     inkscape:document-units="mm"
     inkscape:zoom="0.57334588"
     inkscape:cx="621.78872"
     inkscape:cy="272.95914"
     inkscape:window-width="1920"
     inkscape:window-height="1000"
     inkscape:window-x="0"
     inkscape:window-y="0"
     inkscape:window-maximized="1"
     inkscape:current-layer="layer2" />
  <defs
     id="defs1">
    <rect
       x="352.7739"
       y="212.423"
       width="81.55526"
       height="127.07447"
       id="rect14" />
  </defs>
  <g
     inkscape:groupmode="layer"
     id="layer2"
     inkscape:label="logo_noir"
     transform="matrix(2.0279508,0,0,2.0279508,-55.378849,-137.58482)"
     style="display:inline"
     inkscape:highlight-color="#ffffff">
    <path
       id="path6"
       style="display:inline;fill:#030303;fill-opacity:1;stroke-width:9.56609;stroke-linecap:square;stroke-linejoin:round"
       d="M 66.445225 70.132806 C 65.154472 70.134378 64.121942 71.093769 64.123042 72.265657 C 64.124165 73.437545 65.158547 74.393172 66.449302 74.392648 C 67.740056 74.392124 68.773524 73.435763 68.773524 72.263874 A 0.120697 0.120697 0 0 1 68.773524 72.261835 A 0.120697 0.120697 0 0 1 68.773524 72.259797 C 68.771278 71.08791 67.735979 70.131206 66.445225 70.132806 z M 67.463235 70.800947 C 68.713162 71.350924 68.643719 72.816245 67.749654 73.639652 C 68.367443 72.581352 67.848738 71.237746 67.463235 70.800947 z M 68.382629 73.790506 C 67.920571 74.306027 67.229854 74.634411 66.449302 74.634728 C 65.685304 74.635037 64.996358 74.325115 64.52464 73.832551 L 64.508331 73.832806 L 64.401052 75.767916 L 64.376844 75.774797 C 65.749283 75.788785 67.262364 75.470404 68.41703 74.63116 L 68.382629 73.790506 z M 68.428242 74.906876 C 67.242345 75.71742 65.747307 76.018365 64.388056 76.005664 L 64.285108 77.865857 C 65.716622 77.882486 67.297762 77.566032 68.50214 76.724769 L 68.428242 74.906876 z M 68.513607 77.001505 C 67.26954 77.821484 65.696574 78.120053 64.272112 78.101057 L 64.180632 79.750513 C 65.66865 79.776986 67.322239 79.464421 68.579351 78.61656 L 68.513607 77.001505 z M 68.590563 78.895334 C 67.292427 79.72206 65.647407 80.01529 64.167381 79.986732 L 64.076155 81.635423 C 65.637131 81.653013 67.368303 81.314475 68.652229 80.40948 L 68.590563 78.895334 z M 68.663951 80.69386 C 67.334162 81.577112 65.613869 81.895954 64.06265 81.875974 L 63.971169 83.530781 C 65.566309 83.591727 67.381175 83.283168 68.732243 82.370836 L 68.663951 80.69386 z M 68.74371 82.652159 C 67.346872 83.543665 65.544438 83.832383 63.957663 83.770823 L 63.874082 85.278853 C 65.525792 85.35111 67.423484 85.027101 68.80028 84.04501 L 68.74371 82.652159 z M 68.812002 84.330664 C 67.384769 85.289054 65.502502 85.591517 63.860831 85.519149 L 63.844523 85.812958 L 68.872904 85.823405 L 68.812002 84.330664 z M 59.134667 86.164101 L 60.425845 88.441436 L 72.644509 88.441436 L 73.853634 86.195189 L 59.134667 86.164101 z M 63.864909 88.802772 L 63.864909 117.40107 L 66.479116 121.05699 L 69.09944 117.40107 L 69.09944 88.802772 L 66.669977 88.802772 L 66.671761 117.17785 C 66.664761 117.41282 66.315644 117.41282 66.308641 117.17785 L 66.308641 88.802772 L 63.864909 88.802772 z " />
    <text
       xml:space="preserve"
       transform="matrix(4.9813802,0,0,4.2353714,-1728.0342,-828.07815)"
       id="text14"
       style="font-style:normal;font-variant:normal;font-weight:normal;font-stretch:normal;line-height:1;font-family:MingLiU_HKSCS-ExtB;-inkscape-font-specification:MingLiU_HKSCS-ExtB;white-space:pre;shape-inside:url(#rect14);display:inline;fill:#030303;fill-opacity:1;stroke:none;stroke-width:0;stroke-linecap:round;stroke-linejoin:round;stroke-dasharray:none;stroke-opacity:1"><tspan
         x="352.77344"
         y="222.0332"
         id="tspan2">K</tspan></text>
    <text
       xml:space="preserve"
       style="font-style:normal;font-variant:normal;font-weight:normal;font-stretch:normal;font-size:50.8px;line-height:1;font-family:MingLiU_HKSCS-ExtB;-inkscape-font-specification:MingLiU_HKSCS-ExtB;display:inline;fill:#030303;fill-opacity:1;stroke:none;stroke-width:0;stroke-linecap:round;stroke-linejoin:round;stroke-dasharray:none;stroke-opacity:1"
       x="75.845474"
       y="112.29903"
       id="text15"><tspan
         sodipodi:role="line"
         id="tspan15"
         style="fill:#030303;fill-opacity:1;stroke-width:0"
         x="75.845474"
         y="112.29903">LLER</tspan></text>
    <text
       xml:space="preserve"
       style="font-style:normal;font-variant:normal;font-weight:normal;font-stretch:normal;font-size:8.54633px;line-height:1;font-family:'Lucida Console';-inkscape-font-specification:'Lucida Console';letter-spacing:3.96875px;display:inline;fill:#030303;fill-opacity:1;stroke:none;stroke-width:0;stroke-linecap:round;stroke-linejoin:round;stroke-dasharray:none;stroke-opacity:1"
       x="75.32592"
       y="127.62447"
       id="text17"
       transform="scale(1.0094091,0.99067861)"><tspan
         sodipodi:role="line"
         id="tspan17"
         style="font-style:normal;font-variant:normal;font-weight:normal;font-stretch:normal;font-size:8.54633px;font-family:'Lucida Console';-inkscape-font-specification:'Lucida Console';letter-spacing:3.96875px;fill:#030303;fill-opacity:1;stroke-width:0"
         x="75.32592"
         y="127.62447">MMXXIV</tspan></text>
  </g>
</svg>
