<?xml version="1.0" encoding="UTF-8" standalone="no"?>
<!-- Created with Inkscape (http://www.inkscape.org/) -->

<svg
   width="12cm"
   height="12.5cm"
   viewBox="0 0 120 125"
   version="1.1"
   id="svg1"
   sodipodi:docname="logo-front-pull.svg"
   inkscape:version="1.4 (e7c3feb100, 2024-10-09)"
   xmlns:inkscape="http://www.inkscape.org/namespaces/inkscape"
   xmlns:sodipodi="http://sodipodi.sourceforge.net/DTD/sodipodi-0.dtd"
   xmlns="http://www.w3.org/2000/svg"
   xmlns:svg="http://www.w3.org/2000/svg">
  <sodipodi:namedview
     id="namedview1"
     pagecolor="#ffffff"
     bordercolor="#000000"
     borderopacity="0.25"
     inkscape:showpageshadow="2"
     inkscape:pageopacity="0.0"
     inkscape:pagecheckerboard="0"
     inkscape:deskcolor="#d1d1d1"
     inkscape:document-units="cm"
     inkscape:zoom="1.3490346"
     inkscape:cx="213.85663"
     inkscape:cy="239.05983"
     inkscape:window-width="1920"
     inkscape:window-height="1000"
     inkscape:window-x="0"
     inkscape:window-y="0"
     inkscape:window-maximized="1"
     inkscape:current-layer="layer2" />
  <defs
     id="defs1" />
  <g
     id="layer2"
     transform="matrix(2.0279508,0,0,2.0279508,-55.378849,-137.58482)"
     style="display:inline">
    <path
       id="path23"
       style="display:inline;fill:#030303;fill-opacity:1;stroke-width:9.56609;stroke-linecap:square;stroke-linejoin:round"
       d="m 31.514004,122.14036 v 5.30385 h 0.577169 v -4.45657 h 0.0084 l 1.212948,3.33637 h 0.699229 l 1.217534,-3.43141 h 0.0084 v 4.55161 h 0.678079 v -5.30385 h -1.040434 l -1.166825,3.26579 h -0.0084 l -1.187721,-3.26579 z m 9.204132,0 v 5.30385 h 0.576915 v -4.45657 h 0.0084 l 1.213202,3.33637 h 0.699229 l 1.217279,-3.43141 h 0.0084 v 4.55161 h 0.678333 v -5.30385 H 44.07946 l -1.166825,3.26579 h -0.0084 l -1.187975,-3.26579 z m 9.035441,0 1.937658,2.60427 -2.118836,2.69958 h 0.808802 l 1.697617,-2.15783 1.596453,2.15783 h 0.985647 l -2.072458,-2.81526 1.962885,-2.48859 h -0.808801 l -1.545744,1.96365 -1.461653,-1.96365 z m 9.204129,0 1.93766,2.60427 -2.11883,2.69958 h 0.8088 l 1.69736,-2.15783 1.59645,2.15783 h 0.9859 l -2.07245,-2.81526 1.96288,-2.48859 h -0.8088 l -1.546,1.96365 -1.46165,-1.96365 z m 9.70511,0 v 0.61183 h 1.45325 v 4.08019 h -1.45325 v 0.61183 h 3.74052 v -0.61183 h -1.45324 v -4.08019 h 1.45324 v -0.61183 z m 8.53447,0 2.09768,5.30385 h 0.83403 l 2.14406,-5.30385 h -0.70763 l -1.76515,4.21678 -1.72692,-4.21678 z" />
    <path
       id="path9"
       style="display:inline;fill:#030303;fill-opacity:1;stroke-width:9.56609;stroke-linecap:square;stroke-linejoin:round"
       d="M 56.970983 69.14614 C 55.680226 69.14774 54.6477 70.107103 54.6488 71.278991 C 54.6499 72.450879 55.684308 73.406505 56.97506 73.405981 C 58.26582 73.405457 59.299282 72.449096 59.299282 71.277207 A 0.120697 0.120697 0 0 1 59.299282 71.275168 A 0.120697 0.120697 0 0 1 59.299282 71.27313 C 59.297282 70.101243 58.261733 69.14454 56.970983 69.14614 z M 58.908386 72.803839 C 58.446326 73.31936 57.75561 73.647744 56.97506 73.648061 C 56.21106 73.64837 55.522115 73.338449 55.050397 72.845885 L 55.034089 72.84614 L 54.926809 74.78125 L 54.902601 74.78813 C 56.275041 74.80212 57.788117 74.483737 58.942787 73.644493 L 58.908386 72.803839 z M 58.953999 73.92021 C 57.768099 74.730754 56.273067 75.031699 54.913813 75.018998 L 54.810866 76.87919 C 56.242377 76.89582 57.823517 76.579365 59.027897 75.738102 L 58.953999 73.92021 z M 59.039364 76.014838 C 57.795294 76.834817 56.222327 77.133386 54.79787 77.11439 L 54.706389 78.763846 C 56.194406 78.790316 57.847998 78.477754 59.105108 77.629893 L 59.039364 76.014838 z M 59.11632 77.908667 C 57.81819 78.735393 56.173167 79.028623 54.693138 79.000065 L 54.601913 80.648757 C 56.162882 80.666347 57.894057 80.327808 59.177987 79.422813 L 59.11632 77.908667 z M 59.189709 79.707193 C 57.859919 80.590445 56.139627 80.909288 54.588407 80.889308 L 54.496926 82.544115 C 56.092066 82.605065 57.906941 82.296502 59.258001 81.38417 L 59.189709 79.707193 z M 59.269468 81.665492 C 57.872628 82.556998 56.070197 82.845716 54.483421 82.784156 L 54.39984 84.292186 C 56.05155 84.364446 57.949238 84.040434 59.326038 83.058343 L 59.269468 81.665492 z M 59.33776 83.343998 C 57.91053 84.302388 56.02826 84.60485 54.386589 84.532482 L 54.37028 84.826291 L 59.398662 84.836739 L 59.33776 83.343998 z M 49.537092 85.177434 L 50.828269 87.454769 L 63.046933 87.454769 L 64.256059 85.208522 L 49.537092 85.177434 z M 54.267333 87.816105 L 54.267333 116.4144 L 56.881541 120.07032 L 59.501864 116.4144 L 59.501864 87.816105 L 57.072402 87.816105 L 57.07444 116.19118 C 57.06744 116.42615 56.71832 116.42615 56.71132 116.19118 L 56.71132 87.816105 L 54.267333 87.816105 z " />
  </g>
</svg>
