<?xml version="1.0" encoding="UTF-8" standalone="no"?>
<!-- Created with Inkscape (http://www.inkscape.org/) -->

<svg
   width="12cm"
   height="12.5cm"
   viewBox="0 0 120 125"
   version="1.1"
   id="svg1"
   xmlns="http://www.w3.org/2000/svg"
   xmlns:svg="http://www.w3.org/2000/svg">
  <defs
     id="defs1" />
  <g
     id="layer2"
     transform="matrix(2.0279508,0,0,2.0279508,-55.378849,-137.58482)"
     style="display:inline">
    <path
       id="path23"
       style="display:inline;fill:#ffffff;fill-opacity:1;stroke-width:9.56609;stroke-linecap:square;stroke-linejoin:round"
       d="m 31.514004,122.14036 v 5.30385 h 0.577169 v -4.45657 h 0.0084 l 1.212948,3.33637 h 0.699229 l 1.217534,-3.43141 h 0.0084 v 4.55161 h 0.678079 v -5.30385 h -1.040434 l -1.166825,3.26579 h -0.0084 l -1.187721,-3.26579 z m 9.204132,0 v 5.30385 h 0.576915 v -4.45657 h 0.0084 l 1.213202,3.33637 h 0.699229 l 1.217279,-3.43141 h 0.0084 v 4.55161 h 0.678333 v -5.30385 H 44.07946 l -1.166825,3.26579 h -0.0084 l -1.187975,-3.26579 z m 9.035441,0 1.937658,2.60427 -2.118836,2.69958 h 0.808802 l 1.697617,-2.15783 1.596453,2.15783 h 0.985647 l -2.072458,-2.81526 1.962885,-2.48859 h -0.808801 l -1.545744,1.96365 -1.461653,-1.96365 z m 9.204129,0 1.93766,2.60427 -2.11883,2.69958 h 0.8088 l 1.69736,-2.15783 1.59645,2.15783 h 0.9859 l -2.07245,-2.81526 1.96288,-2.48859 h -0.8088 l -1.546,1.96365 -1.46165,-1.96365 z m 9.70511,0 v 0.61183 h 1.45325 v 4.08019 h -1.45325 v 0.61183 h 3.74052 v -0.61183 h -1.45324 v -4.08019 h 1.45324 v -0.61183 z m 8.53447,0 2.09768,5.30385 h 0.83403 l 2.14406,-5.30385 h -0.70763 l -1.76515,4.21678 -1.72692,-4.21678 z" />
    <path
       id="path9"
       style="display:inline;fill:#ffffff;fill-opacity:1;stroke-width:9.56609;stroke-linecap:square;stroke-linejoin:round"
       d="m 56.970983,69.14614 c -1.290757,0.0016 -2.323283,0.960963 -2.322183,2.132851 0.0011,1.171888 1.035508,2.127514 2.32626,2.12699 1.29076,-5.24e-4 2.324222,-0.956885 2.324222,-2.128774 a 0.120697,0.120697 0 0 1 0,-0.002 0.120697,0.120697 0 0 1 0,-0.002 c -0.002,-1.171887 -1.037549,-2.12859 -2.328299,-2.12699 z m 1.937403,3.657699 c -0.46206,0.515521 -1.152776,0.843905 -1.933326,0.844222 -0.764,3.09e-4 -1.452945,-0.309612 -1.924663,-0.802176 l -0.01631,2.55e-4 -0.10728,1.93511 -0.02421,0.0069 c 1.37244,0.01399 2.885516,-0.304393 4.040186,-1.143637 z m 0.04561,1.116371 c -1.1859,0.810544 -2.680932,1.111489 -4.040186,1.098788 l -0.102947,1.860192 c 1.431511,0.01663 3.012651,-0.299825 4.217031,-1.141088 z m 0.08536,2.094628 c -1.24407,0.819979 -2.817037,1.118548 -4.241494,1.099552 l -0.09148,1.649456 c 1.488017,0.02647 3.141609,-0.286092 4.398719,-1.133953 z m 0.07696,1.893829 c -1.29813,0.826726 -2.943153,1.119956 -4.423182,1.091398 l -0.09122,1.648692 c 1.560969,0.01759 3.292144,-0.320949 4.576074,-1.225944 z m 0.07339,1.798526 c -1.32979,0.883252 -3.050082,1.202095 -4.601302,1.182115 l -0.09148,1.654807 c 1.59514,0.06095 3.410015,-0.247613 4.761075,-1.159945 z m 0.07976,1.958299 c -1.39684,0.891506 -3.199271,1.180224 -4.786047,1.118664 l -0.08358,1.50803 c 1.65171,0.07226 3.549398,-0.251752 4.926198,-1.233843 z m 0.06829,1.678506 c -1.42723,0.95839 -3.3095,1.260852 -4.951171,1.188484 l -0.01631,0.293809 5.028382,0.01045 z m -9.800668,1.833436 1.291177,2.277335 h 12.218664 l 1.209126,-2.246247 z m 4.730241,2.638671 V 116.4144 l 2.614208,3.65592 2.620323,-3.65592 V 87.816105 h -2.429462 l 0.002,28.375075 c -0.007,0.23497 -0.35612,0.23497 -0.36312,0 V 87.816105 Z" />
  </g>
</svg>
