<?xml version="1.0" encoding="UTF-8" standalone="no"?>
<!-- Created with Inkscape (http://www.inkscape.org/) -->

<svg
   width="320mm"
   height="197mm"
   viewBox="0 0 320 197"
   version="1.1"
   id="svg1"
   xmlns="http://www.w3.org/2000/svg"
   xmlns:svg="http://www.w3.org/2000/svg">
  <defs
     id="defs1" />
  <g
     id="layer1">
    <path
       id="text17"
       style="font-size:13.6468px;line-height:1;font-family:'Lucida Console';-inkscape-font-specification:'Lucida Console';letter-spacing:6.33735px;fill:#ffffff;fill-opacity:1;stroke-width:0;stroke-linecap:round;stroke-linejoin:round"
       d="m 158.34071,10.093996 c -4.42924,0.0053 -7.97223,3.359807 -7.96846,7.457174 0.003,4.097358 3.55306,7.438658 7.98228,7.436831 4.42922,-0.0017 7.97563,-3.345715 7.97563,-7.44309 a 0.41417184,0.42200247 0 0 1 0,-0.0073 0.41417184,0.42200247 0 0 1 0,-0.0068 c -0.007,-4.097361 -3.56023,-7.442426 -7.98945,-7.436831 z m 3.49302,2.335844 c 4.28912,1.922932 4.05091,7.046568 0.98294,9.925512 2.11994,-3.700219 0.33989,-8.398295 -0.98294,-9.925512 z m 3.15513,10.453398 c -1.58556,1.802448 -3.95586,2.95026 -6.63433,2.951363 -2.62167,0.001 -4.98542,-1.082601 -6.60412,-2.804786 l -0.0563,5.21e-4 -0.36809,6.766019 -0.0824,0.02452 c 4.7095,0.04897 9.9013,-1.064484 13.86354,-3.99879 z m 0.15665,3.90281 c -4.06941,2.833964 -9.19977,3.886192 -13.86404,3.84178 l -0.35325,6.50364 c 4.91225,0.0581 10.33788,-1.048547 14.47071,-3.989921 z m 0.29284,7.323638 c -4.26902,2.866962 -9.66662,3.9108 -14.55466,3.844388 l -0.31434,5.767103 c 5.10615,0.09258 10.78099,-0.999918 15.09477,-3.964362 z m 0.26416,6.621528 c -4.45456,2.890549 -10.09952,3.915558 -15.17821,3.815698 l -0.31331,5.764496 c 5.35649,0.06155 11.29767,-1.12201 15.70347,-4.286206 z m 0.25188,6.288208 c -4.56317,3.088198 -10.46648,4.202708 -15.78948,4.132848 l -0.31433,5.785882 c 5.47372,0.213098 11.70157,-0.865277 16.33777,-4.055125 z m 0.27338,6.846871 c -4.79325,3.117041 -10.97826,4.126937 -16.42327,3.911678 l -0.28669,5.27208 c 5.66784,0.252631 12.18003,-0.880089 16.9045,-4.313852 z m 0.23447,5.868821 c -4.89755,3.350895 -11.35659,4.408819 -16.98999,4.155799 l -0.0558,1.027083 17.25468,0.03651 z m -33.20797,6.41027 4.4309,7.96263 h 41.92849 l 4.14882,-7.85361 z m 16.23231,9.226009 v 11.11795 c 2.49194,0.278907 5.34697,0.442681 8.38621,0.460596 V 75.371393 Z m 9.62512,0 0.002,11.576981 c 3.02463,-0.02297 5.86136,-0.190677 8.33604,-0.472072 V 75.371393 Z m 17.89717,8.847309 c -0.0838,0.148271 -0.087,0.324314 -0.21502,0.450164 -0.29396,0.289024 -0.69125,0.538299 -1.18362,0.772529 -0.98473,0.468462 -2.3591,0.873037 -4.05001,1.213304 -3.38185,0.680516 -8.02057,1.095929 -13.14528,1.095937 -5.1247,-8e-6 -9.76342,-0.415421 -13.14527,-1.095937 -1.69093,-0.340267 -3.06528,-0.744842 -4.05001,-1.213304 -0.49237,-0.23423 -0.88965,-0.483505 -1.18363,-0.772529 -0.12406,-0.12198 -0.12555,-0.293487 -0.20836,-0.436601 -0.10568,0.22908 -0.15921,0.4528 -0.16382,0.671333 0.002,0.66017 0.43078,1.348008 1.34335,2.029128 0.91413,0.682288 2.2827,1.32381 3.98807,1.862207 3.41072,1.076777 8.16717,1.751646 13.4207,1.751622 5.25344,-8e-6 10.00955,-0.674845 13.42018,-1.751622 1.70533,-0.538397 3.07448,-1.179935 3.98859,-1.862207 0.91363,-0.681931 1.34435,-1.37033 1.34488,-2.031214 -2.6e-4,-0.222023 -0.0566,-0.450391 -0.16075,-0.68281 z M 21.137795,93.43428 c -2.552896,0 -4.692383,0.861198 -6.418285,2.583095 -1.905683,1.868441 -2.858714,4.414725 -2.858714,7.638695 0,2.67444 0.845219,4.92744 2.535164,6.75924 0.862951,1.02582 2.876314,2.61918 6.040467,4.78071 3.847321,2.67444 6.400262,4.79945 7.658732,6.3748 1.078689,1.4288 1.618266,3.09576 1.618266,5.00083 0,1.8318 -0.701297,3.48062 -2.103592,4.94607 -1.510164,1.53871 -3.326211,2.30767 -5.447632,2.30767 -4.997923,0 -8.539491,-3.60853 -10.624955,-10.82584 h -1.240449 l 1.618266,12.4747 h 1.186182 c 0.143825,-1.35553 0.827323,-2.0333 2.049837,-2.0333 0.323607,0 1.258328,0.32956 2.804448,0.98901 1.582076,0.73272 3.146389,1.09907 4.692509,1.09907 3.523716,0 6.310081,-1.1721 8.359589,-3.51681 1.725901,-1.97836 2.588917,-4.41478 2.588917,-7.30903 -0.179781,-3.33389 -1.888015,-6.4113 -5.124081,-9.23227 -2.948414,-2.16154 -5.878701,-4.30468 -8.79116,-6.42957 -3.128196,-2.49125 -4.691997,-5.03754 -4.691997,-7.6387 0,-2.014987 0.736893,-3.645146 2.2111,-4.890773 1.222514,-0.989175 2.624595,-1.484028 4.206672,-1.484028 2.588852,0 4.800555,1.172618 6.634326,3.517328 1.474207,1.941713 2.498943,4.414413 3.074244,7.418573 h 1.294202 L 31.223157,93.43428 h -1.186182 c -0.107869,0.439633 -0.197883,0.87956 -0.269796,1.319193 -0.143825,0.512905 -0.557279,0.768878 -1.240448,0.768878 -0.251694,0 -1.240322,-0.347689 -2.966223,-1.043775 C 23.79865,93.78249 22.324352,93.43428 21.137795,93.43428 Z m 198.208615,0.220126 -10.89476,30.169314 c -1.61803,4.46961 -2.93009,7.36411 -3.93687,8.683 -0.39552,0.51291 -0.80898,0.82432 -1.24045,0.93423 -0.46743,0.10991 -0.93479,0.20162 -1.40222,0.2749 v 1.09907 h 9.86983 v -1.09907 c -1.11465,-0.0733 -1.86985,-0.21991 -2.26537,-0.43973 -0.86295,-0.36636 -1.2942,-1.13584 -1.2942,-2.3082 0,-0.87926 0.14392,-1.68501 0.43157,-2.41774 l 2.69643,-6.97936 h 15.10142 l 1.94182,5.44056 c 0.61125,1.7219 0.9169,3.04064 0.9169,3.95654 0,1.13572 -0.44957,1.9052 -1.34847,2.3082 -0.5753,0.21982 -1.56393,0.36645 -2.96623,0.43973 v 1.09907 h 12.7823 v -1.09907 c -1.33038,-0.18318 -2.2651,-0.49459 -2.80444,-0.93423 -0.93487,-0.76936 -1.79788,-2.2534 -2.58892,-4.45156 L 219.56245,93.654406 Z M 37.587687,94.25845 v 1.099067 c 2.193333,0.18318 3.613725,0.568182 4.260938,1.15436 0.791038,0.769358 1.186182,2.289664 1.186182,4.561103 v 19.01433 c 0,3.99333 0.413454,7.01581 1.240448,9.06744 1.797814,4.24979 5.429398,6.37428 10.894752,6.37428 5.753006,0 9.582416,-2.10636 11.488099,-6.31951 1.042732,-2.19816 1.564511,-5.51393 1.564511,-9.9469 v -15.93673 c 0,-3.15071 0.359547,-5.220274 1.078673,-6.209448 0.611257,-0.84263 1.99554,-1.4292 4.152917,-1.758925 V 94.25845 h -11.59612 v 1.099067 c 1.905684,0.18318 3.128247,0.732959 3.667591,1.648862 0.575301,0.915902 0.863144,3.022251 0.863144,6.319511 v 16.48653 c 0,4.17651 -0.413454,7.03421 -1.240449,8.57293 -1.869726,3.59034 -4.71051,5.38527 -8.521876,5.38527 -6.795737,0 -10.193383,-4.39614 -10.193383,-13.18881 v -19.50883 c 0,-2.198166 0.413453,-3.681682 1.240448,-4.45104 0.647213,-0.622814 2.085403,-1.044607 4.314692,-1.264423 V 94.25845 Z m 72.164103,0 v 1.099067 c 1.43824,0.146544 2.46299,0.47662 3.07424,0.989526 0.89891,0.805993 1.85194,2.509214 2.85871,5.110377 l 12.51251,33.74194 12.35124,-34.56611 c 0.79104,-2.234804 1.45623,-3.645259 1.99557,-4.231437 0.50339,-0.549541 1.3664,-0.897752 2.58892,-1.044296 V 94.25845 h -10.24765 v 1.099067 c 1.58207,0.146544 2.51679,0.293187 2.80445,0.439731 0.79104,0.329725 1.18669,1.099207 1.18669,2.308198 0,1.062447 -0.32343,2.509694 -0.97065,4.341494 l -8.89918,24.72928 -8.30584,-22.6412 c -1.40229,-3.8468 -2.10359,-6.081658 -2.10359,-6.704471 0,-0.952539 0.39566,-1.593513 1.1867,-1.923238 0.50338,-0.219817 1.61762,-0.40325 3.34353,-0.549794 V 94.25845 Z m 54.74355,0 v 1.099067 c 1.43825,0.146544 2.46298,0.47662 3.07425,0.989526 0.8989,0.805993 1.85193,2.509214 2.85871,5.110377 l 12.51251,33.74194 12.35124,-34.56611 c 0.79103,-2.234804 1.45622,-3.645259 1.99557,-4.231437 0.50339,-0.549541 1.36641,-0.897752 2.58892,-1.044296 V 94.25845 h -10.24765 v 1.099067 c 1.58207,0.146544 2.51679,0.293187 2.80444,0.439731 0.79104,0.329725 1.1867,1.099207 1.1867,2.308198 0,1.062447 -0.32396,2.509694 -0.97117,4.341494 l -8.89918,24.72928 -8.30583,-22.6412 c -1.40229,-3.8468 -2.10308,-6.081658 -2.10308,-6.704471 0,-0.952539 0.39514,-1.593513 1.18618,-1.923238 0.50339,-0.219817 1.61814,-0.40325 3.34404,-0.549794 V 94.25845 Z m 74.645,0 v 1.099067 c 1.18656,0.03664 1.96007,0.147009 2.31963,0.33019 0.61126,0.329724 1.36595,1.208536 2.26486,2.637344 v 26.982699 c 0,3.04079 -0.10782,4.89066 -0.32355,5.55011 -0.53935,1.64862 -1.95974,2.60153 -4.26094,2.85799 v 1.09907 h 11.75789 v -1.09907 c -2.01355,-0.18318 -3.39783,-0.84281 -4.15291,-1.97853 -0.79104,-1.09908 -1.1867,-3.24223 -1.1867,-6.42957 v -24.6745 h 0.53959 l 24.43218,34.73094 h 0.10802 v -32.36797 c 0,-3.370526 0.34124,-5.51367 1.02441,-6.429573 0.46743,-0.549541 1.6544,-0.952678 3.56008,-1.20913 V 94.25845 h -11.75789 v 1.099067 c 2.12141,0.18318 3.4879,0.586317 4.09916,1.20913 0.89891,0.989176 1.34796,3.132319 1.34796,6.429573 v 23.46537 L 246.58354,94.25845 Z M 75.179982,94.368513 v 1.099067 c 2.013551,0.219817 3.343928,0.696013 3.991141,1.428735 0.791039,0.879266 1.186694,2.473156 1.186694,4.781225 v 25.16901 c 0,2.49126 -0.341749,4.195 -1.024918,5.1109 -0.68317,0.95254 -2.067453,1.53858 -4.152917,1.7584 v 1.09907 h 14.02275 v -1.09907 c -2.085465,-0.18318 -3.505344,-0.69616 -4.260426,-1.5388 -0.791039,-0.87926 -1.186694,-2.39957 -1.186694,-4.5611 v -11.76007 l 4.530222,-0.22013 12.782816,19.17917 h 7.44269 v -1.09907 c -2.66077,-0.32973 -4.35069,-1.06241 -5.06982,-2.19813 L 92.546772,115.03119 c 2.696721,-0.51291 4.763991,-1.26374 6.202242,-2.25291 2.552896,-1.7219 3.829366,-4.3231 3.829366,-7.80353 0,-4.13988 -1.59991,-7.089301 -4.800018,-8.847834 -2.157377,-1.172354 -4.908146,-1.758403 -8.25208,-1.758403 z m 201.984218,0 -0.32355,9.836837 h 1.24045 c 0.61126,-3.40716 1.47427,-5.56844 2.58892,-6.484343 1.11465,-0.989174 3.18243,-1.484028 6.20275,-1.484028 h 3.23602 v 30.609571 c 0,2.49126 -0.32395,4.17634 -0.97116,5.05561 -0.79104,1.02581 -2.33704,1.63051 -4.63824,1.81369 v 1.09907 h 14.83214 v -1.09907 c -2.2293,-0.14654 -3.7575,-0.64139 -4.58449,-1.48403 -0.79105,-0.91589 -1.1867,-2.45434 -1.1867,-4.61587 V 96.236979 h 3.12851 c 3.05629,0 5.12356,0.458063 6.20225,1.373965 1.18656,0.989175 2.06737,3.187246 2.64267,6.594406 h 1.18669 l -0.32355,-9.836837 z m -129.87387,0.05477 v 1.099067 c 2.37311,0.146545 3.95522,0.568337 4.74626,1.264423 0.89891,0.84263 1.34847,2.399209 1.34847,4.670647 v 26.37813 c 0,2.19817 -0.43176,3.70034 -1.29471,4.50634 -0.827,0.80599 -2.42691,1.26405 -4.80002,1.37396 v 1.09907 h 15.42497 v -1.09907 c -2.19334,-0.0733 -3.70323,-0.45828 -4.53022,-1.15436 -1.07869,-0.84263 -1.61827,-2.41786 -1.61827,-4.72594 v -26.37813 c 0,-2.34471 0.53958,-3.956214 1.61827,-4.835481 0.82699,-0.622814 2.33688,-0.989681 4.53022,-1.099589 v -1.099067 z m -58.171558,1.793352 c 1.746127,0.06869 3.32042,0.404852 4.722715,1.009347 3.307977,1.282264 4.961794,3.828548 4.961794,7.638698 0,3.92006 -1.887753,6.55807 -5.663162,7.9136 -1.977595,0.73275 -5.105709,1.11723 -9.384507,1.15384 V 98.874845 c 0,-1.135719 0.28733,-1.886544 0.862631,-2.252905 0.359563,-0.18318 1.258687,-0.311688 2.696939,-0.384961 0.620246,-0.03664 1.221548,-0.04324 1.80359,-0.02034 z m 129.796578,3.152711 6.79559,20.168174 H 211.79569 Z M 118.36018,139.11782 v 8.54946 h 0.9128 v -7.18332 h 0.0133 l 1.9193,5.37745 h 1.1058 l 1.92595,-5.53081 h 0.0133 v 7.33668 h 1.07253 v -8.54946 h -1.6454 l -1.84608,5.26425 h -0.0133 l -1.87885,-5.26425 z m 14.55978,0 v 8.54946 h 0.91332 v -7.18332 h 0.0133 l 1.91878,5.37745 h 1.10632 l 1.92543,-5.53081 h 0.0133 v 7.33668 h 1.07304 v -8.54946 h -1.64591 l -1.84557,5.26425 h -0.0133 l -1.87936,-5.26425 z m 14.29357,0 3.06555,4.19805 -3.35172,4.35141 h 1.27935 l 2.68517,-3.47821 2.52543,3.47821 h 1.55939 l -3.27851,-4.53763 3.10496,-4.01183 h -1.27935 l -2.44506,3.16523 -2.31247,-3.16523 z m 14.5603,0 3.06503,4.19805 -3.35172,4.35141 h 1.27936 l 2.68567,-3.47821 2.52544,3.47821 h 1.55888 l -3.278,-4.53763 3.10496,-4.01183 h -1.27936 l -2.44557,3.16523 -2.31195,-3.16523 z m 15.35279,0 v 0.98639 h 2.29915 v 6.57667 h -2.29915 v 0.9864 h 5.9176 v -0.9864 h -2.29916 v -6.57667 h 2.29916 v -0.98639 z m 13.50056,0 3.31845,8.54946 h 1.3198 l 3.39165,-8.54946 h -1.11963 l -2.79216,6.79679 -2.73175,-6.79679 z m -13.61831,11.50864 c -0.0838,0.14813 -0.0871,0.32494 -0.21502,0.45069 -0.29395,0.28902 -0.69126,0.53831 -1.18362,0.77253 -0.98471,0.46846 -2.35909,0.87148 -4.05001,1.21174 -3.38186,0.68051 -8.02051,1.09646 -13.14528,1.09646 -5.12476,0 -9.76342,-0.41595 -13.14527,-1.09646 -1.69093,-0.34026 -3.06529,-0.74328 -4.05001,-1.21174 -0.49236,-0.23422 -0.88966,-0.48351 -1.18363,-0.77253 -0.12394,-0.12188 -0.1261,-0.29363 -0.20887,-0.4366 -0.1055,0.22905 -0.1587,0.45229 -0.16331,0.67081 0.002,0.66015 0.43081,1.34697 1.34335,2.02808 0.91411,0.68229 2.2827,1.32381 3.98807,1.86221 3.41073,1.07679 8.16711,1.75269 13.4207,1.75267 5.25351,-2e-5 10.00954,-0.67588 13.42018,-1.75267 1.70534,-0.5384 3.07451,-1.17994 3.98859,-1.86221 0.91408,-0.68228 1.34483,-1.37003 1.34488,-2.03121 -2.1e-4,-0.22215 -0.0565,-0.44921 -0.16075,-0.68177 z m -9.5601,6.41236 c -2.50441,0.42039 -5.33146,0.66492 -8.33092,0.69898 l 0.002,16.84332 c -0.0241,0.82154 -1.22204,0.82154 -1.24608,0 v -16.84071 c -3.01845,-0.0265 -5.86245,-0.2684 -8.38621,-0.68594 V 175.362 l 8.97035,12.78246 8.99184,-12.78246 z"
       transform="scale(1.0094091,0.99067861)" />
  </g>
</svg>
