<?xml version="1.0" encoding="UTF-8" standalone="no"?>
<!-- Created with Inkscape (http://www.inkscape.org/) -->

<svg
   width="31cm"
   height="12.5cm"
   viewBox="0 0 310 125"
   version="1.1"
   id="svg1"
   xmlns="http://www.w3.org/2000/svg"
   xmlns:svg="http://www.w3.org/2000/svg">
  <defs
     id="defs1" />
  <g
     id="layer2"
     transform="matrix(2.0279508,0,0,2.0279508,-55.378849,-137.58482)"
     style="display:inline">
    <path
       id="path6"
       style="display:inline;fill:#030303;fill-opacity:1;stroke-width:9.56609;stroke-linecap:square;stroke-linejoin:round"
       d="m 66.445225,70.132806 c -1.290753,0.0016 -2.323283,0.960963 -2.322183,2.132851 0.0011,1.171888 1.035505,2.127515 2.32626,2.126991 1.290754,-5.24e-4 2.324222,-0.956885 2.324222,-2.128774 a 0.120697,0.120697 0 0 1 0,-0.002 0.120697,0.120697 0 0 1 0,-0.002 c -0.0022,-1.171887 -1.037545,-2.128591 -2.328299,-2.126991 z m 1.01801,0.668141 c 1.249927,0.549977 1.180484,2.015298 0.286419,2.838705 0.617789,-1.0583 0.09908,-2.401906 -0.286419,-2.838705 z m 0.919394,2.989559 c -0.462058,0.515521 -1.152775,0.843905 -1.933327,0.844222 -0.763998,3.09e-4 -1.452944,-0.309613 -1.924662,-0.802177 l -0.01631,2.55e-4 -0.107279,1.93511 -0.02421,0.0069 c 1.372439,0.01399 2.88552,-0.304393 4.040186,-1.143637 z m 0.04561,1.11637 c -1.185897,0.810544 -2.680935,1.111489 -4.040186,1.098788 l -0.102948,1.860193 c 1.431514,0.01663 3.012654,-0.299825 4.217032,-1.141088 z m 0.08536,2.094629 c -1.244067,0.819979 -2.817033,1.118548 -4.241495,1.099552 l -0.09148,1.649456 c 1.488018,0.02647 3.141607,-0.286092 4.398719,-1.133953 z m -39.249305,1.811012 v 0.992527 c 1.790176,0.165462 2.87992,0.430318 3.269098,0.794277 0.583752,0.595606 0.875565,1.952315 0.875565,4.07 v 23.873409 c 0,2.11769 -0.116663,3.42486 -0.350124,3.92119 -0.505942,1.05887 -1.770869,1.68743 -3.794539,1.88592 v 0.99279 h 11.500069 v -0.99279 c -1.595602,-0.16543 -2.665913,-0.56233 -3.210744,-1.19103 -0.54483,-0.66176 -0.81721,-1.96893 -0.81721,-3.92118 v -9.628922 l 2.276825,-2.680206 4.961873,6.303508 c 4.047372,5.16187 6.071109,8.27219 6.071109,9.33103 0,0.62873 -0.253203,1.04248 -0.759112,1.24098 -0.505942,0.23153 -1.420248,0.4134 -2.743402,0.54582 v 0.99279 h 12.60905 v -0.99253 c -1.050773,0 -2.082185,-0.4135 -3.094036,-1.24072 -0.856166,-0.72795 -2.023675,-2.03487 -3.502514,-3.92093 L 41.172849,94.44731 50.688118,83.527978 c 1.128581,-1.356646 2.101695,-2.2996 2.918974,-2.829022 0.583751,-0.430257 1.245142,-0.678515 1.984545,-0.744586 0.739436,-0.06636 1.479035,-0.116035 2.218471,-0.149071 V 78.812517 H 46.310039 v 0.992782 c 1.206424,0.06607 2.0041,0.181859 2.393279,0.347321 0.389178,0.165462 0.583794,0.512796 0.583794,1.042218 0,0.992658 -0.719911,2.41553 -2.159862,4.268505 -1.51776,1.91916 -4.981386,5.84016 -10.390833,11.763044 V 84.669321 c 0,-2.051501 0.311246,-3.375268 0.933918,-3.970874 0.505909,-0.430145 1.731971,-0.727941 3.677831,-0.893403 v -0.992527 z m 46.581268,2.55e-4 v 0.992018 c 1.5875,0.132292 2.662264,0.430126 3.224504,0.893147 0.760676,0.727604 1.141088,2.149545 1.141088,4.266212 v 23.862201 c 0,2.05052 -0.363794,3.48933 -1.091398,4.31615 -0.628385,0.62838 -1.719767,1.02516 -3.274194,1.19053 v 0.99227 h 23.31637 l 1.934598,-9.17789 h -0.99202 c -1.157548,3.43959 -2.695554,5.60599 -4.613783,6.49896 -1.322917,0.66146 -3.902454,0.99201 -7.738912,0.99201 -2.050521,0 -3.340544,-0.13216 -3.869711,-0.39675 -0.562239,-0.29765 -0.843202,-1.04186 -0.843202,-2.23249 V 84.964149 c 0,-2.215885 0.413391,-3.687423 1.240213,-4.415027 0.595313,-0.496094 1.736291,-0.744332 3.42301,-0.744332 v -0.992018 z m 25.399788,0 v 0.992018 c 1.5875,0.132292 2.66252,0.430126 3.22476,0.893147 0.76068,0.727604 1.14108,2.149545 1.14108,4.266212 v 23.862201 c 0,2.05052 -0.36379,3.48933 -1.09139,4.31615 -0.62839,0.62838 -1.72003,1.02516 -3.27445,1.19053 v 0.99227 h 23.31662 l 1.9346,-9.17789 h -0.99202 c -1.15755,3.43959 -2.69556,5.60599 -4.61378,6.49896 -1.32292,0.66146 -3.90271,0.99201 -7.73917,0.99201 -2.05052,0 -3.34029,-0.13216 -3.86946,-0.39675 -0.56224,-0.29765 -0.8432,-1.04186 -0.8432,-2.23249 V 84.964149 c 0,-2.215885 0.41339,-3.687423 1.24021,-4.415027 0.59532,-0.496094 1.7363,-0.744332 3.42301,-0.744332 v -0.992018 z m 25.40004,0 v 0.992018 c 1.62057,0.165364 2.69559,0.479562 3.22476,0.942582 0.76068,0.694532 1.14083,2.10011 1.14083,4.216777 v 24.259211 c 0,2.01744 -0.36379,3.38979 -1.0914,4.11739 -0.56224,0.4961 -1.65362,0.82691 -3.27419,0.99228 v 0.99227 h 23.51487 l 1.83548,-8.92969 h -0.89289 c -1.05833,2.84427 -2.23229,4.76243 -3.52214,5.75462 -1.28985,0.99219 -3.32382,1.48815 -6.10194,1.48815 -3.40651,0 -5.52332,-0.13216 -6.35014,-0.39675 -0.8599,-0.33073 -1.2899,-1.09155 -1.2899,-2.28218 V 97.168288 h 7.59035 c 1.85208,0 3.07564,0.314198 3.67095,0.942583 0.59531,0.595313 1.02532,2.017259 1.2899,4.266209 h 0.94259 V 90.024383 h -0.94259 c -0.26458,2.083594 -0.64474,3.422959 -1.14083,4.018272 -0.66146,0.727604 -1.93487,1.091653 -3.82002,1.091653 h -7.59035 V 82.384597 c 0,-0.79375 0.1654,-1.339568 0.49613,-1.637225 0.19844,-0.165364 0.62845,-0.24794 1.28991,-0.24794 h 6.6972 c 2.54661,0 4.23342,0.330814 5.06024,0.992272 0.79375,0.661459 1.37255,2.248807 1.73635,4.762349 h 0.94258 l -0.29763,-7.441281 z m 25.40004,0 v 0.992018 c 1.5875,0.198438 2.66252,0.661679 3.22476,1.389283 0.52916,0.694532 0.79351,2.100111 0.79351,4.216777 v 22.72111 c 0,2.28203 -0.23137,3.80317 -0.69439,4.56384 -0.56224,0.89297 -1.67023,1.43879 -3.32388,1.63723 v 0.99227 h 11.55893 v -0.99227 c -1.78594,-0.16537 -2.97651,-0.66159 -3.57182,-1.48841 -0.62839,-0.79376 -0.94259,-2.13312 -0.94259,-4.01827 V 98.209996 l 3.91915,-0.198505 8.48324,17.313809 h 5.95313 v -0.99227 c -1.75287,-0.23151 -2.91046,-0.89289 -3.4727,-1.98429 l -7.5901,-14.882821 c 5.55626,-1.190625 8.33418,-4.216787 8.33418,-9.078505 0,-3.73724 -1.32275,-6.399608 -3.96858,-7.987108 -1.78594,-1.058333 -4.06815,-1.587534 -6.84628,-1.587534 z m -83.454875,0.08256 c -1.298136,0.826726 -2.943156,1.119956 -4.423182,1.091398 l -0.09123,1.648691 c 1.560976,0.01759 3.292148,-0.320948 4.576074,-1.225943 z m 94.967425,1.585496 c 1.44488,0.06201 2.75027,0.365791 3.91609,0.911494 2.71198,1.157552 4.06796,3.456126 4.06796,6.895709 0,3.538802 -1.55461,5.920207 -4.66347,7.143905 -1.65364,0.661458 -4.2498,1.008635 -7.78861,1.041708 V 82.880733 c 0,-0.992188 0.23163,-1.653817 0.69465,-1.984545 0.29766,-0.198437 1.05822,-0.33061 2.28192,-0.396756 0.51263,-0.03307 1.00984,-0.03927 1.49146,-0.0186 z m -94.894037,0.21303 c -1.329789,0.883252 -3.050082,1.202094 -4.601301,1.182114 l -0.09148,1.654807 c 1.59514,0.06095 3.410006,-0.247613 4.761074,-1.159945 z m 0.07976,1.958299 c -1.396838,0.891506 -3.199272,1.180224 -4.786047,1.118664 l -0.08358,1.50803 c 1.65171,0.07226 3.549402,-0.251752 4.926198,-1.233843 z m 0.06829,1.678505 c -1.427233,0.95839 -3.3095,1.260853 -4.951171,1.188485 l -0.01631,0.293809 5.028381,0.01045 z m -9.677335,1.833437 1.291178,2.277335 H 72.6445 l 1.209125,-2.246247 z M 63.8649,88.80277 v 28.5983 l 2.614207,3.65592 2.620324,-3.65592 V 88.802772 h -2.429463 l 0.0018,28.375078 c -0.007,0.23497 -0.356117,0.23497 -0.36312,0 V 88.802772 Z m 12.56573,32.32811 v 5.30385 h 0.577169 v -4.45657 h 0.0084 l 1.212948,3.33637 h 0.699228 l 1.217535,-3.43141 h 0.0084 v 4.55161 h 0.678078 v -5.30385 h -1.040433 l -1.166826,3.26579 h -0.0084 l -1.18772,-3.26579 z m 9.204132,0 v 5.30385 h 0.576914 v -4.45657 h 0.0084 l 1.213203,3.33637 h 0.699229 l 1.217279,-3.43141 h 0.0084 v 4.55161 h 0.678334 v -5.30385 h -1.040434 l -1.166825,3.26579 h -0.0084 l -1.187976,-3.26579 z m 9.035441,0 1.937658,2.60427 -2.118836,2.69958 h 0.808802 l 1.697617,-2.15783 1.596453,2.15783 h 0.985647 l -2.072459,-2.81526 1.962886,-2.48859 H 98.65917 l -1.545744,1.96365 -1.461653,-1.96365 z m 9.204127,0 1.93766,2.60427 -2.11883,2.69958 h 0.8088 l 1.69736,-2.15783 1.59645,2.15783 h 0.98591 l -2.07246,-2.81526 1.96288,-2.48859 h -0.8088 l -1.546,1.96365 -1.46165,-1.96365 z m 9.70511,0 v 0.61183 h 1.45325 v 4.08019 h -1.45325 v 0.61183 h 3.74052 v -0.61183 h -1.45324 v -4.08019 h 1.45324 v -0.61183 z m 8.53447,0 2.09768,5.30385 h 0.83403 l 2.14407,-5.30385 h -0.70764 l -1.76515,4.21678 -1.72692,-4.21678 z" />
  </g>
</svg>
