<?xml version="1.0"?>
<svg width="64" height="64" xmlns="http://www.w3.org/2000/svg" xmlns:svg="http://www.w3.org/2000/svg" enable-background="new 0 0 64 64" version="1.1" xml:space="preserve">

 <g class="layer">
  <title>Layer 1</title>
  <g id="svg_1">
   <path d="m47.75,34.03l0,-14.27c0,-5.88 -6.08,-6.06 -6.08,-6.06l-19.57,0c-5.27,0 -5.81,4.39 -5.85,5.78l0,14.79c0,3.55 2.05,5.57 2.64,6.08l11,9.17c0,0.01 2.12,1.76 4.23,0c0,0 0,0 0,0l10.09,-8.42c3.34,-2.78 3.53,-6.39 3.54,-7.07zm-5.8,5.38l-8.23,6.86c0,0 0,0 0,0c-1.72,1.43 -3.44,0.01 -3.44,0l-8.96,-7.47c-0.49,-0.42 -2.15,-2.06 -2.15,-4.95l0,-12.05c0.03,-1.13 0.47,-4.71 4.76,-4.71l15.95,0c0,0 4.95,0.15 4.95,4.94l0,11.62c0,0.55 -0.17,3.5 -2.88,5.76z" id="svg_2"/>
   <path d="m61.91,4.21l-0.92,-0.93c-0.63,-0.6 -3.81,-3.36 -7.1,-0.08l-5.65,5.66c0,0 -1.37,1.63 0.52,3.75c0.04,0.05 0.06,0.09 0.1,0.13c1,1.06 1.75,2.57 1.75,4.8l0,4.26c0,0 0.4,2.34 2.73,0l0.55,-0.55l8.29,-8.29c0,0 4.31,-4.26 -0.27,-8.75z" id="svg_3"/>
   <path d="m10.89,22.03c0.03,0.03 2.5,2.26 2.5,-0.91l0,-3.91c0.03,-1 0.3,-3.32 1.92,-4.98l-0.01,-0.01c0,0 0.05,-0.04 0.11,-0.11c0,0 0.01,0 0.01,-0.01c0.4,-0.42 1.61,-1.97 -0.12,-3.7c0,0 0,0 0,0l-5.19,-5.2c-3.29,-3.28 -6.47,-0.52 -7.1,0.09l-0.92,0.92c-4.58,4.49 -0.27,8.75 -0.27,8.75l8.29,8.3l0.78,0.77z" id="svg_4"/>
   <path d="m20.82,45.46l-0.37,-0.31c-0.3,-0.24 -2.6,-1.93 -5.59,0.84c0,0 0,0 0,0l-7.2,7.2c-0.41,0.42 -2.01,2.15 -2.72,4.34l-1.12,3.52c-0.57,1.77 1.25,1.26 1.25,1.26l0,0l3.29,-1.06c2.42,-0.77 4.6,-2.82 4.6,-2.82l7.62,-7.61c2.89,-2.89 0.58,-5.07 0.24,-5.36z" id="svg_5"/>
   <path d="m59.06,57.53c-0.71,-2.19 -2.31,-3.92 -2.72,-4.34l-6.92,-6.91c-2.72,-2.73 -4.75,-1.93 -5.62,-1.34l-0.53,0.44l0,0l-0.05,0.04c-0.36,0.31 -2.68,2.5 0.54,5.74l7.27,7.27c0,0 2.19,2.05 4.61,2.82l3.29,1.05l0,0c0,0 1.81,0.52 1.25,-1.25l-1.12,-3.52z" id="svg_6"/>
  </g>
  <text fill="#000000" font-family="Serif" font-size="24" id="svg_7" stroke="#000000" stroke-width="0" style="cursor: move;" text-anchor="middle" x="32" xml:space="preserve" y="38.88">I</text>
 </g>
</svg>